<svg width="7" height="13" viewBox="0 0 7 13" fill="none" xmlns="http://www.w3.org/2000/svg">
<path d="M1.09033 12.3398C1.38232 12.3398 1.61719 12.2383 1.82031 12.0352L6.6001 7.37598C6.87305 7.10303 6.99365 6.83643 7 6.5C7 6.16992 6.87305 5.89062 6.6001 5.62402L1.82666 0.958496C1.61719 0.761719 1.37598 0.660156 1.09033 0.660156C0.506348 0.660156 0.0239258 1.12988 0.0239258 1.71387C0.0239258 2.00586 0.150879 2.27246 0.366699 2.49463L4.51172 6.50635L0.366699 10.5054C0.144531 10.7275 0.0239258 10.9941 0.0239258 11.2861C0.0239258 11.8638 0.506348 12.3398 1.09033 12.3398Z" fill="#464444"/>
</svg>
