<svg width="23" height="19" viewBox="0 0 23 19" fill="none" xmlns="http://www.w3.org/2000/svg">
<path d="M22.0838 1.06324C22.0755 0.925988 22.0173 0.796506 21.9201 0.699277C21.8228 0.602048 21.6934 0.543812 21.5561 0.535579C16.7762 0.254408 12.9448 1.69963 11.3074 4.40262C10.2174 6.20306 10.2408 8.40276 11.3571 10.4947C10.6413 11.314 10.1425 12.2997 9.90623 13.3617L8.0505 11.505C8.81435 9.99606 8.80966 8.41681 8.02051 7.11405C6.81991 5.13179 4.02975 4.06897 0.552594 4.27516C0.415187 4.28341 0.28558 4.34178 0.18833 4.43921C0.0910793 4.53663 0.0329408 4.66634 0.0249293 4.80376C-0.179389 8.27998 0.881565 11.0701 2.86382 12.2707C3.50942 12.6653 4.2516 12.8736 5.00822 12.8724C5.79179 12.8644 6.56241 12.6717 7.2576 12.3101L9.7469 14.7919V17.5586C9.7469 17.7078 9.80615 17.8508 9.91161 17.9563C10.0171 18.0617 10.1601 18.121 10.3092 18.121C10.4584 18.121 10.6014 18.0617 10.7069 17.9563C10.8123 17.8508 10.8716 17.7078 10.8716 17.5586V14.7947C10.8678 13.5065 11.3253 12.2594 12.1612 11.2791C13.2119 11.8349 14.2906 12.1142 15.331 12.1142C16.3485 12.1176 17.3472 11.8396 18.2167 11.311C20.9197 9.67552 22.3649 5.84316 22.0838 1.06324ZM3.44679 11.3082C1.91815 10.3831 1.06714 8.18625 1.12431 5.37454C3.93602 5.31362 6.1301 6.16557 7.05515 7.6942C7.5875 8.5724 7.63249 9.60429 7.19949 10.6549L4.70831 8.16282C4.60279 8.0573 4.45968 7.99802 4.31045 7.99802C4.16122 7.99802 4.01811 8.0573 3.91259 8.16282C3.80707 8.26834 3.7478 8.41146 3.7478 8.56068C3.7478 8.70991 3.80707 8.85302 3.91259 8.95854L6.40752 11.4525C5.35688 11.8855 4.32498 11.8415 3.44679 11.3082ZM17.6347 10.3503C16.2532 11.1864 14.6224 11.2107 12.9794 10.4347L18.2055 5.20959C18.2577 5.15734 18.2992 5.09531 18.3274 5.02705C18.3557 4.95878 18.3703 4.88562 18.3703 4.81173C18.3703 4.73784 18.3557 4.66467 18.3274 4.59641C18.2992 4.52814 18.2577 4.46612 18.2055 4.41387C18.1532 4.36162 18.0912 4.32018 18.0229 4.2919C17.9547 4.26363 17.8815 4.24907 17.8076 4.24907C17.7337 4.24907 17.6606 4.26363 17.5923 4.2919C17.524 4.32018 17.462 4.36162 17.4098 4.41387L12.1837 9.63991C11.4077 7.99693 11.4339 6.36614 12.2681 4.98559C13.6289 2.73621 16.8662 1.50093 20.9844 1.63496C21.1184 5.74943 19.8822 8.98853 17.6347 10.3503Z" fill="#494949"/>
</svg>
