<svg width="29" height="31" viewBox="0 0 29 31" fill="none" xmlns="http://www.w3.org/2000/svg">
<path fill-rule="evenodd" clip-rule="evenodd" d="M3.40895 12.4446C4.36927 16.1775 6.39492 20.0222 8.76439 22.3916C12.0044 25.6317 15.1496 26.9053 17.8205 27.0086C20.4813 27.1103 22.844 26.0534 24.575 24.3191C25.3541 23.5366 25.8554 22.4052 26.0654 20.9994C26.2771 19.5988 26.1924 17.9847 25.8656 16.313C24.619 9.91933 18.6674 4.83488 11.3202 3.04634C8.06151 2.2537 5.57518 2.38411 4.21684 3.74584C3.45807 4.508 2.99061 5.70374 2.85681 7.25177C2.7264 8.78964 2.92964 10.5833 3.40895 12.4446ZM1.04457 7.17725C1.19022 5.46324 1.72204 3.87964 2.84665 2.74995C5.00102 0.590498 8.55438 0.741237 11.8571 1.54574C19.7666 3.47146 26.2839 8.96409 27.6592 16.02C28.0064 17.7984 28.1097 19.5683 27.8692 21.1603C27.6321 22.7456 27.0427 24.214 25.9435 25.3166C24.8701 26.4019 23.5822 27.2514 22.1619 27.8107C20.7417 28.3701 19.2204 28.627 17.6952 28.5651C14.384 28.4398 10.8188 26.8698 7.37218 23.4231C4.76729 20.8182 2.63833 16.7229 1.63228 12.8155C1.12756 10.8559 0.895522 8.90481 1.04457 7.17725Z" fill="#355624" stroke="#355624" stroke-width="0.5"/>
<path fill-rule="evenodd" clip-rule="evenodd" d="M17.7732 10.6798C18.2695 10.7526 18.6031 11.154 18.5168 11.5774L17.6513 15.876L21.7331 20.5472L24.3024 23.9752L27.7016 29.0732C27.9506 29.4475 27.7982 29.9235 27.3612 30.1352C26.9242 30.3486 26.3687 30.2182 26.1197 29.8439L22.7442 24.7797L20.4374 21.7057L13.6593 20.8114C13.163 20.7454 12.8226 20.3473 12.8988 19.9239C12.975 19.5005 13.4408 19.2075 13.937 19.2736L18.9215 19.9324L15.9965 16.5823L9.35729 10.8915C9.27422 10.8257 9.20713 10.742 9.16106 10.6466C9.11499 10.5512 9.09115 10.4466 9.09131 10.3406C9.09147 10.2347 9.11564 10.1302 9.162 10.0349C9.20836 9.93962 9.27571 9.8561 9.35898 9.7906C9.54162 9.64397 9.76897 9.56433 10.0032 9.56494C10.2374 9.56556 10.4643 9.64639 10.6462 9.79398L16.088 14.4584L16.7214 11.3149C16.8061 10.8915 17.277 10.607 17.7732 10.6798Z" fill="#355624" stroke="#355624" stroke-width="0.5"/>
</svg>
