<svg width="36" height="36" viewBox="0 0 36 36" fill="none" xmlns="http://www.w3.org/2000/svg">
<circle cx="17.83" cy="17.83" r="17.83" fill="#D1EFE7"/>
<path d="M18 8C18.83 7.99993 19.6285 8.3174 20.2319 8.88731C20.8353 9.45722 21.1978 10.2364 21.245 11.065L21.25 11.25L21.251 19.202L21.331 19.271C22.2621 20.1024 22.8485 21.2521 22.975 22.494L22.994 22.746L23 23C23.0001 23.8238 22.7967 24.6349 22.4079 25.3612C22.019 26.0874 21.4567 26.7063 20.7709 27.1629C20.0852 27.6194 19.2973 27.8994 18.4772 27.9781C17.6572 28.0567 16.8304 27.9315 16.0704 27.6135C15.3104 27.2956 14.6407 26.7948 14.1209 26.1557C13.6011 25.5166 13.2473 24.7589 13.0909 23.9501C12.9345 23.1412 12.9804 22.3063 13.2245 21.5195C13.4686 20.7326 13.9033 20.0183 14.49 19.44L14.67 19.27L14.749 19.202L14.75 11.25C14.7498 10.4513 15.0438 9.68051 15.5757 9.08474C16.1077 8.48897 16.8404 8.10995 17.634 8.02L17.816 8.005L18 8ZM18 9.5C17.5607 9.50004 17.1374 9.66533 16.8143 9.96305C16.4912 10.2608 16.2919 10.6691 16.256 11.107L16.25 11.25V19.945L15.941 20.169C15.3506 20.5984 14.9093 21.2017 14.6788 21.8944C14.4484 22.5871 14.4402 23.3345 14.6556 24.0321C14.871 24.7296 15.2991 25.3423 15.88 25.7845C16.4609 26.2266 17.1656 26.476 17.8953 26.4979C18.625 26.5197 19.3432 26.3127 19.9495 25.9061C20.5558 25.4994 21.0197 24.9134 21.2764 24.2299C21.533 23.5465 21.5696 22.7999 21.3809 22.0947C21.1922 21.3895 20.7877 20.7609 20.224 20.297L20.059 20.17L19.752 19.945L19.75 11.25C19.75 10.7859 19.5656 10.3408 19.2374 10.0126C18.9092 9.68437 18.4641 9.5 18 9.5ZM18 14C18.1989 14 18.3897 14.079 18.5303 14.2197C18.671 14.3603 18.75 14.5511 18.75 14.75V20.615C19.3201 20.7942 19.8071 21.1716 20.123 21.6788C20.4389 22.1861 20.5627 22.7896 20.4721 23.3803C20.3814 23.9709 20.0823 24.5096 19.6288 24.8988C19.1754 25.2879 18.5976 25.5019 18 25.5019C17.4024 25.5019 16.8246 25.2879 16.3712 24.8988C15.9177 24.5096 15.6186 23.9709 15.5279 23.3803C15.4373 22.7896 15.5611 22.1861 15.877 21.6788C16.1929 21.1716 16.6799 20.7942 17.25 20.615V14.75C17.25 14.5511 17.329 14.3603 17.4697 14.2197C17.6103 14.079 17.8011 14 18 14Z" fill="#33AAA3"/>
</svg>
