<svg width="36" height="36" viewBox="0 0 36 36" fill="none" xmlns="http://www.w3.org/2000/svg">
<circle cx="17.83" cy="17.83" r="17.83" fill="#D1EFE7"/>
<path d="M18.1976 24.217C21.6723 24.217 24.4892 21.4001 24.4892 17.9254C24.4892 14.4506 21.6723 11.6338 18.1976 11.6338C14.7228 11.6338 11.906 14.4506 11.906 17.9254C11.906 21.4001 14.7228 24.217 18.1976 24.217Z" stroke="#33AAA3" stroke-width="1.5" stroke-linecap="round" stroke-linejoin="round"/>
<path d="M25.1085 24.8365L24.9827 24.7107M24.9827 11.1402L25.1085 11.0144L24.9827 11.1402ZM11.2864 24.8365L11.4122 24.7107L11.2864 24.8365ZM18.1974 8.32353V8.24609V8.32353ZM18.1974 27.6048V27.5274V27.6048ZM8.5955 17.9255H8.51807H8.5955ZM27.8768 17.9255H27.7994H27.8768ZM11.4122 11.1402L11.2864 11.0144L11.4122 11.1402Z" stroke="#33AAA3" stroke-width="1.5" stroke-linecap="round" stroke-linejoin="round"/>
</svg>
