<svg width="22" height="31" viewBox="0 0 22 31" fill="none" xmlns="http://www.w3.org/2000/svg">
<path d="M10.8792 13.5658C10.7342 13.5517 10.5602 13.5517 10.4008 13.5658C6.9507 13.4525 4.21094 10.69 4.21094 7.29C4.21094 3.81917 7.08117 1 10.6472 1C14.1988 1 17.0835 3.81917 17.0835 7.29C17.069 10.69 14.3292 13.4525 10.8792 13.5658Z" stroke="#355624" stroke-width="2" stroke-linecap="round" stroke-linejoin="round"/>
<path d="M3.63105 18.793C0.122984 21.088 0.122984 24.828 3.63105 27.1088C7.61748 29.7155 14.1552 29.7155 18.1417 27.1088C21.6497 24.8138 21.6497 21.0738 18.1417 18.793C14.1697 16.2005 7.63198 16.2005 3.63105 18.793Z" stroke="#355624" stroke-width="2" stroke-linecap="round" stroke-linejoin="round"/>
</svg>
